<svg version="1.1" xmlns="http://www.w3.org/2000/svg" viewBox="0 0 1058.3922424316406 943" width="1058.3922424316406" height="943" class="excalidraw-svg">
  <!-- svg-source:excalidraw -->
  
  <defs>
    <style class="style-fonts">
      @font-face {
        font-family: "Virgil";
        src: url("https://excalidraw.com/Virgil.woff2");
      }
      @font-face {
        font-family: "Cascadia";
        src: url("https://excalidraw.com/Cascadia.woff2");
      }
      @font-face {
        font-family: "Assistant";
        src: url("https://excalidraw.com/Assistant-Regular.woff2");
      }
    </style>
    
  </defs>
  <rect x="0" y="0" width="1058.3922424316406" height="943" fill="#ffffff"/><g transform="translate(13.76544189453125 70) rotate(0 37.4267578125 11.5)"><text x="37.4267578125" y="18.400390625" font-family="Helvetica, Segoe UI Emoji" font-size="20px" fill="#1e1e1e" text-anchor="middle" style="white-space: pre;" direction="ltr" dominant-baseline="alphabetic">!y | x | !a</text></g><g transform="translate(13.415443420410156 130) rotate(0 37.4267578125 11.5)"><text x="37.4267578125" y="18.400390625" font-family="Helvetica, Segoe UI Emoji" font-size="20px" fill="#1e1e1e" text-anchor="middle" style="white-space: pre;" direction="ltr" dominant-baseline="alphabetic">!c | !z | b</text></g><g transform="translate(68.59391021728516 190) rotate(0 7.7783203125 11.5)"><text x="7.7783203125" y="18.400390625" font-family="Helvetica, Segoe UI Emoji" font-size="20px" fill="#1e1e1e" text-anchor="middle" style="white-space: pre;" direction="ltr" dominant-baseline="alphabetic">!x</text></g><g transform="translate(13.483924865722656 250) rotate(0 37.98828125 11.5)"><text x="37.98828125" y="18.400390625" font-family="Helvetica, Segoe UI Emoji" font-size="20px" fill="#1e1e1e" text-anchor="middle" style="white-space: pre;" direction="ltr" dominant-baseline="alphabetic"> z | a | b </text></g><g transform="translate(13.327117919921875 310) rotate(0 40.205078125 11.5)"><text x="40.205078125" y="18.400390625" font-family="Helvetica, Segoe UI Emoji" font-size="20px" fill="#1e1e1e" text-anchor="middle" style="white-space: pre;" direction="ltr" dominant-baseline="alphabetic">!z | !b | !c</text></g><g transform="translate(13.503768920898438 370) rotate(0 34.6484375 11.5)"><text x="34.6484375" y="18.400390625" font-family="Helvetica, Segoe UI Emoji" font-size="20px" fill="#1e1e1e" text-anchor="middle" style="white-space: pre;" direction="ltr" dominant-baseline="alphabetic">b | !c | z</text></g><g transform="translate(13.763771057128906 430) rotate(0 34.6484375 11.5)"><text x="34.6484375" y="18.400390625" font-family="Helvetica, Segoe UI Emoji" font-size="20px" fill="#1e1e1e" text-anchor="middle" style="white-space: pre;" direction="ltr" dominant-baseline="alphabetic">x | a | y </text></g><g transform="translate(13.992095947265625 490) rotate(0 31.8701171875 11.5)"><text x="31.8701171875" y="18.400390625" font-family="Helvetica, Segoe UI Emoji" font-size="20px" fill="#1e1e1e" text-anchor="middle" style="white-space: pre;" direction="ltr" dominant-baseline="alphabetic">y | c | d</text></g><g transform="translate(13.663917541503906 550) rotate(0 37.98828125 11.5)"><text x="37.98828125" y="18.400390625" font-family="Helvetica, Segoe UI Emoji" font-size="20px" fill="#1e1e1e" text-anchor="middle" style="white-space: pre;" direction="ltr" dominant-baseline="alphabetic">!b | !a | z</text></g><g transform="translate(13.663917541503906 610) rotate(0 37.98828125 11.5)"><text x="37.98828125" y="18.400390625" font-family="Helvetica, Segoe UI Emoji" font-size="20px" fill="#1e1e1e" text-anchor="middle" style="white-space: pre;" direction="ltr" dominant-baseline="alphabetic">a | !z | !b</text></g><g transform="translate(13.573921203613281 670) rotate(0 37.98828125 11.5)"><text x="37.98828125" y="18.400390625" font-family="Helvetica, Segoe UI Emoji" font-size="20px" fill="#1e1e1e" text-anchor="middle" style="white-space: pre;" direction="ltr" dominant-baseline="alphabetic">b | !z | a </text></g><g transform="translate(13.637123107910156 730) rotate(0 40.205078125 11.5)"><text x="40.205078125" y="18.400390625" font-family="Helvetica, Segoe UI Emoji" font-size="20px" fill="#1e1e1e" text-anchor="middle" style="white-space: pre;" direction="ltr" dominant-baseline="alphabetic">!y | !c | d </text></g><g transform="translate(13.325447082519531 790) rotate(0 37.4267578125 11.5)"><text x="37.4267578125" y="18.400390625" font-family="Helvetica, Segoe UI Emoji" font-size="20px" fill="#1e1e1e" text-anchor="middle" style="white-space: pre;" direction="ltr" dominant-baseline="alphabetic">c | b | !z </text></g><g transform="translate(13.503768920898438 850) rotate(0 34.6484375 11.5)"><text x="34.6484375" y="18.400390625" font-family="Helvetica, Segoe UI Emoji" font-size="20px" fill="#1e1e1e" text-anchor="middle" style="white-space: pre;" direction="ltr" dominant-baseline="alphabetic">c | z | !b</text></g><g transform="translate(68.89238739013672 910) rotate(0 8.33984375 11.5)"><text x="8.33984375" y="18.400390625" font-family="Helvetica, Segoe UI Emoji" font-size="20px" fill="#1e1e1e" text-anchor="middle" style="white-space: pre;" direction="ltr" dominant-baseline="alphabetic">!d</text></g><g stroke-linecap="round"><g transform="translate(1038.3922424316406 430) rotate(0 0 10)"><path d="M0 0 C0 3.33, 0 16.67, 0 20 M0 0 C0 3.33, 0 16.67, 0 20" stroke="#e03131" stroke-width="2" fill="none"/></g></g><mask/><g stroke-linecap="round"><g transform="translate(1028.3922424316406 450) rotate(0 10 0)"><path d="M0 0 C3.33 0, 16.67 0, 20 0 M0 0 C3.33 0, 16.67 0, 20 0" stroke="#e03131" stroke-width="2" fill="none"/></g></g><mask/><g transform="translate(210.9197540283203 70) rotate(0 24.2724609375 11.5)"><text x="24.2724609375" y="18.400390625" font-family="Helvetica, Segoe UI Emoji" font-size="20px" fill="#1e1e1e" text-anchor="middle" style="white-space: pre;" direction="ltr" dominant-baseline="alphabetic">!y | !a</text></g><g stroke-linecap="round"><g transform="translate(99.4341866898285 80.39376707547171) rotate(0 51.71739469711861 0.8018225197841957)"><path d="M0 0 C17.24 0.27, 86.2 1.34, 103.43 1.6 M0 0 C17.24 0.27, 86.2 1.34, 103.43 1.6" stroke="#1e1e1e" stroke-width="2" fill="none"/></g><g transform="translate(99.4341866898285 80.39376707547171) rotate(0 51.71739469711861 0.8018225197841957)"><path d="M79.81 9.79 C86.6 7.44, 93.39 5.08, 103.43 1.6 M79.81 9.79 C86.03 7.64, 92.24 5.48, 103.43 1.6" stroke="#1e1e1e" stroke-width="2" fill="none"/></g><g transform="translate(99.4341866898285 80.39376707547171) rotate(0 51.71739469711861 0.8018225197841957)"><path d="M80.08 -7.31 C86.79 -4.75, 93.5 -2.19, 103.43 1.6 M80.08 -7.31 C86.22 -4.97, 92.36 -2.62, 103.43 1.6" stroke="#1e1e1e" stroke-width="2" fill="none"/></g></g><mask/><g stroke-linecap="round"><g transform="translate(94.62326625288722 201.4685931779054) rotate(0 55.325585024824534 -53.32103239580499)"><path d="M0 0 C18.44 -17.77, 92.21 -88.87, 110.65 -106.64 M0 0 C18.44 -17.77, 92.21 -88.87, 110.65 -106.64" stroke="#1e1e1e" stroke-width="2" fill="none"/></g><g transform="translate(94.62326625288722 201.4685931779054) rotate(0 55.325585024824534 -53.32103239580499)"><path d="M99.67 -84.18 C103.96 -92.96, 108.25 -101.73, 110.65 -106.64 M99.67 -84.18 C103.41 -91.84, 107.15 -99.49, 110.65 -106.64" stroke="#1e1e1e" stroke-width="2" fill="none"/></g><g transform="translate(94.62326625288722 201.4685931779054) rotate(0 55.325585024824534 -53.32103239580499)"><path d="M87.8 -96.5 C96.73 -100.46, 105.65 -104.42, 110.65 -106.64 M87.8 -96.5 C95.59 -99.95, 103.37 -103.41, 110.65 -106.64" stroke="#1e1e1e" stroke-width="2" fill="none"/></g></g><mask/><g transform="translate(211.58487701416016 430) rotate(0 19.27734375 11.5)"><text x="19.27734375" y="18.400390625" font-family="Helvetica, Segoe UI Emoji" font-size="20px" fill="#1e1e1e" text-anchor="middle" style="white-space: pre;" direction="ltr" dominant-baseline="alphabetic">b | a</text></g><g stroke-linecap="round"><g transform="translate(96.22698470127591 260.0014682818669) rotate(0 57.731045243295114 84.19110764647206)"><path d="M0 0 C19.24 28.06, 96.22 140.32, 115.46 168.38 M0 0 C19.24 28.06, 96.22 140.32, 115.46 168.38" stroke="#1e1e1e" stroke-width="2" fill="none"/></g><g transform="translate(96.22698470127591 260.0014682818669) rotate(0 57.731045243295114 84.19110764647206)"><path d="M95.12 153.84 C102.67 159.24, 110.22 164.63, 115.46 168.38 M95.12 153.84 C100.55 157.72, 105.98 161.6, 115.46 168.38" stroke="#1e1e1e" stroke-width="2" fill="none"/></g><g transform="translate(96.22698470127591 260.0014682818669) rotate(0 57.731045243295114 84.19110764647206)"><path d="M109.23 144.17 C111.54 153.16, 113.85 162.14, 115.46 168.38 M109.23 144.17 C110.89 150.63, 112.55 157.09, 115.46 168.38" stroke="#1e1e1e" stroke-width="2" fill="none"/></g></g><mask/><g stroke-linecap="round"><g transform="translate(101.83964690829919 682.5606075085036) rotate(0 56.92924474615694 -111.45297054678724)"><path d="M0 0 C18.98 -37.15, 94.88 -185.75, 113.86 -222.91 M0 0 C18.98 -37.15, 94.88 -185.75, 113.86 -222.91" stroke="#1e1e1e" stroke-width="2" fill="none"/></g><g transform="translate(101.83964690829919 682.5606075085036) rotate(0 56.92924474615694 -111.45297054678724)"><path d="M110.79 -198.1 C112 -207.91, 113.22 -217.72, 113.86 -222.91 M110.79 -198.1 C111.9 -207.05, 113 -216, 113.86 -222.91" stroke="#1e1e1e" stroke-width="2" fill="none"/></g><g transform="translate(101.83964690829919 682.5606075085036) rotate(0 56.92924474615694 -111.45297054678724)"><path d="M95.56 -205.87 C102.8 -212.61, 110.04 -219.35, 113.86 -222.91 M95.56 -205.87 C102.16 -212.02, 108.76 -218.16, 113.86 -222.91" stroke="#1e1e1e" stroke-width="2" fill="none"/></g></g><mask/><g transform="translate(371.54808044433594 350) rotate(0 21.494140625 11.5)"><text x="21.494140625" y="18.400390625" font-family="Helvetica, Segoe UI Emoji" font-size="20px" fill="#1e1e1e" text-anchor="middle" style="white-space: pre;" direction="ltr" dominant-baseline="alphabetic">b | !y</text></g><g stroke-linecap="round"><g transform="translate(267.0146602126906 82.7992272939423) rotate(0 51.31646508502149 131.49848949610055)"><path d="M0 0 C17.11 43.83, 85.53 219.16, 102.63 263 M0 0 C17.11 43.83, 85.53 219.16, 102.63 263" stroke="#1e1e1e" stroke-width="2" fill="none"/></g><g transform="translate(267.0146602126906 82.7992272939423) rotate(0 51.31646508502149 131.49848949610055)"><path d="M86.13 244.22 C91.99 250.89, 97.85 257.55, 102.63 263 M86.13 244.22 C92.15 251.07, 98.17 257.93, 102.63 263" stroke="#1e1e1e" stroke-width="2" fill="none"/></g><g transform="translate(267.0146602126906 82.7992272939423) rotate(0 51.31646508502149 131.49848949610055)"><path d="M102.06 238 C102.26 246.88, 102.47 255.75, 102.63 263 M102.06 238 C102.27 247.12, 102.48 256.25, 102.63 263" stroke="#1e1e1e" stroke-width="2" fill="none"/></g></g><mask/><g stroke-linecap="round"><g transform="translate(258.9964203330844 441.2127851643023) rotate(0 56.929244746156996 -32.072812700784425)"><path d="M0 0 C18.98 -10.69, 94.88 -53.45, 113.86 -64.15 M0 0 C18.98 -10.69, 94.88 -53.45, 113.86 -64.15" stroke="#1e1e1e" stroke-width="2" fill="none"/></g><g transform="translate(258.9964203330844 441.2127851643023) rotate(0 56.929244746156996 -32.072812700784425)"><path d="M97.59 -45.16 C100.99 -49.13, 104.39 -53.1, 113.86 -64.15 M97.59 -45.16 C101.98 -50.29, 106.37 -55.41, 113.86 -64.15" stroke="#1e1e1e" stroke-width="2" fill="none"/></g><g transform="translate(258.9964203330844 441.2127851643023) rotate(0 56.929244746156996 -32.072812700784425)"><path d="M89.19 -60.06 C94.35 -60.92, 99.51 -61.77, 113.86 -64.15 M89.19 -60.06 C95.85 -61.17, 102.51 -62.27, 113.86 -64.15" stroke="#1e1e1e" stroke-width="2" fill="none"/></g></g><mask/><g transform="translate(211.24807739257812 290) rotate(0 21.494140625 11.5)"><text x="21.494140625" y="18.400390625" font-family="Helvetica, Segoe UI Emoji" font-size="20px" fill="#1e1e1e" text-anchor="middle" style="white-space: pre;" direction="ltr" dominant-baseline="alphabetic">b | !c</text></g><g stroke-linecap="round"><g transform="translate(101.83964690829919 383.48173992100715) rotate(0 58.13197485539234 -32.47371294935351)"><path d="M0 0 C19.38 -10.82, 96.89 -54.12, 116.26 -64.95 M0 0 C19.38 -10.82, 96.89 -54.12, 116.26 -64.95" stroke="#1e1e1e" stroke-width="2" fill="none"/></g><g transform="translate(101.83964690829919 383.48173992100715) rotate(0 58.13197485539234 -32.47371294935351)"><path d="M99.92 -46.03 C103.32 -49.96, 106.72 -53.9, 116.26 -64.95 M99.92 -46.03 C103.54 -50.21, 107.15 -54.4, 116.26 -64.95" stroke="#1e1e1e" stroke-width="2" fill="none"/></g><g transform="translate(101.83964690829919 383.48173992100715) rotate(0 58.13197485539234 -32.47371294935351)"><path d="M91.58 -60.96 C96.72 -61.79, 101.85 -62.62, 116.26 -64.95 M91.58 -60.96 C97.04 -61.84, 102.5 -62.72, 116.26 -64.95" stroke="#1e1e1e" stroke-width="2" fill="none"/></g></g><mask/><g stroke-linecap="round"><g transform="translate(97.02872647135791 141.33208771613965) rotate(0 61.339235571001154 71.36199137521669)"><path d="M0 0 C20.45 23.79, 102.23 118.94, 122.68 142.72 M0 0 C20.45 23.79, 102.23 118.94, 122.68 142.72" stroke="#1e1e1e" stroke-width="2" fill="none"/></g><g transform="translate(97.02872647135791 141.33208771613965) rotate(0 61.339235571001154 71.36199137521669)"><path d="M100.88 130.48 C108.47 134.74, 116.05 139, 122.68 142.72 M100.88 130.48 C106.65 133.72, 112.41 136.96, 122.68 142.72" stroke="#1e1e1e" stroke-width="2" fill="none"/></g><g transform="translate(97.02872647135791 141.33208771613965) rotate(0 61.339235571001154 71.36199137521669)"><path d="M113.85 119.33 C116.92 127.47, 119.99 135.61, 122.68 142.72 M113.85 119.33 C116.18 125.52, 118.52 131.71, 122.68 142.72" stroke="#1e1e1e" stroke-width="2" fill="none"/></g></g><mask/><g transform="translate(210.84793090820312 610) rotate(0 18.154296875 11.5)"><text x="18.154296875" y="18.400390625" font-family="Helvetica, Segoe UI Emoji" font-size="20px" fill="#1e1e1e" text-anchor="middle" style="white-space: pre;" direction="ltr" dominant-baseline="alphabetic">y | c</text></g><g stroke-linecap="round"><g transform="translate(91.41606426433464 502.9529503474006) rotate(0 56.929186019100825 54.12285491558919)"><path d="M0 0 C18.98 18.04, 94.88 90.2, 113.86 108.25 M0 0 C18.98 18.04, 94.88 90.2, 113.86 108.25" stroke="#1e1e1e" stroke-width="2" fill="none"/></g><g transform="translate(91.41606426433464 502.9529503474006) rotate(0 56.929186019100825 54.12285491558919)"><path d="M90.94 98.26 C99.99 102.2, 109.04 106.15, 113.86 108.25 M90.94 98.26 C95.65 100.31, 100.36 102.36, 113.86 108.25" stroke="#1e1e1e" stroke-width="2" fill="none"/></g><g transform="translate(91.41606426433464 502.9529503474006) rotate(0 56.929186019100825 54.12285491558919)"><path d="M102.72 85.86 C107.12 94.7, 111.52 103.54, 113.86 108.25 M102.72 85.86 C105.01 90.46, 107.3 95.06, 113.86 108.25" stroke="#1e1e1e" stroke-width="2" fill="none"/></g></g><mask/><g stroke-linecap="round"><g transform="translate(96.22698470127591 921.5030283612904) rotate(0 57.731045243295114 -140.7194227805319)"><path d="M0 0 C19.24 -46.91, 96.22 -234.53, 115.46 -281.44 M0 0 C19.24 -46.91, 96.22 -234.53, 115.46 -281.44" stroke="#1e1e1e" stroke-width="2" fill="none"/></g><g transform="translate(96.22698470127591 921.5030283612904) rotate(0 57.731045243295114 -140.7194227805319)"><path d="M114.46 -256.46 C114.74 -263.54, 115.03 -270.63, 115.46 -281.44 M114.46 -256.46 C114.73 -263.27, 115 -270.08, 115.46 -281.44" stroke="#1e1e1e" stroke-width="2" fill="none"/></g><g transform="translate(96.22698470127591 921.5030283612904) rotate(0 57.731045243295114 -140.7194227805319)"><path d="M98.63 -262.95 C103.41 -268.19, 108.18 -273.44, 115.46 -281.44 M98.63 -262.95 C103.22 -267.99, 107.81 -273.03, 115.46 -281.44" stroke="#1e1e1e" stroke-width="2" fill="none"/></g></g><mask/><g transform="translate(371.6364059448242 510) rotate(0 18.7158203125 11.5)"><text x="18.7158203125" y="18.400390625" font-family="Helvetica, Segoe UI Emoji" font-size="20px" fill="#1e1e1e" text-anchor="middle" style="white-space: pre;" direction="ltr" dominant-baseline="alphabetic">b | y</text></g><g stroke-linecap="round"><g transform="translate(252.5818989018669 312.9215930882207) rotate(0 59.735575849668635 98.62386895729588)"><path d="M0 0 C19.91 32.87, 99.56 164.37, 119.47 197.25 M0 0 C19.91 32.87, 99.56 164.37, 119.47 197.25" stroke="#1e1e1e" stroke-width="2" fill="none"/></g><g transform="translate(252.5818989018669 312.9215930882207) rotate(0 59.735575849668635 98.62386895729588)"><path d="M99.99 181.58 C106.1 186.5, 112.22 191.42, 119.47 197.25 M99.99 181.58 C106.67 186.96, 113.36 192.33, 119.47 197.25" stroke="#1e1e1e" stroke-width="2" fill="none"/></g><g transform="translate(252.5818989018669 312.9215930882207) rotate(0 59.735575849668635 98.62386895729588)"><path d="M114.61 172.72 C116.14 180.42, 117.66 188.12, 119.47 197.25 M114.61 172.72 C116.28 181.14, 117.95 189.55, 119.47 197.25" stroke="#1e1e1e" stroke-width="2" fill="none"/></g></g><mask/><g stroke-linecap="round"><g transform="translate(260.60002132736076 624.0277617680703) rotate(0 54.523784527686416 -42.89738368390226)"><path d="M0 0 C18.17 -14.3, 90.87 -71.5, 109.05 -85.79 M0 0 C18.17 -14.3, 90.87 -71.5, 109.05 -85.79" stroke="#1e1e1e" stroke-width="2" fill="none"/></g><g transform="translate(260.60002132736076 624.0277617680703) rotate(0 54.523784527686416 -42.89738368390226)"><path d="M95.87 -64.55 C100.56 -72.11, 105.24 -79.66, 109.05 -85.79 M95.87 -64.55 C98.6 -68.95, 101.33 -73.36, 109.05 -85.79" stroke="#1e1e1e" stroke-width="2" fill="none"/></g><g transform="translate(260.60002132736076 624.0277617680703) rotate(0 54.523784527686416 -42.89738368390226)"><path d="M85.3 -77.99 C93.74 -80.77, 102.19 -83.54, 109.05 -85.79 M85.3 -77.99 C90.22 -79.61, 95.14 -81.22, 109.05 -85.79" stroke="#1e1e1e" stroke-width="2" fill="none"/></g></g><mask/><g transform="translate(488.980712890625 430) rotate(0 5.5615234375 11.5)"><text x="5.5615234375" y="18.400390625" font-family="Helvetica, Segoe UI Emoji" font-size="20px" fill="#1971c2" text-anchor="middle" style="white-space: pre;" direction="ltr" dominant-baseline="alphabetic">b</text></g><g stroke-linecap="round"><g transform="translate(423.3695744132817 366.64351839171275) rotate(0 29.266393506688587 32.47371294935357)"><path d="M0 0 C9.76 10.82, 48.78 54.12, 58.53 64.95 M0 0 C9.76 10.82, 48.78 54.12, 58.53 64.95" stroke="#1e1e1e" stroke-width="2" fill="none"/></g><g transform="translate(423.3695744132817 366.64351839171275) rotate(0 29.266393506688587 32.47371294935357)"><path d="M36.45 53.22 C42.01 56.17, 47.57 59.13, 58.53 64.95 M36.45 53.22 C41.02 55.64, 45.58 58.07, 58.53 64.95" stroke="#1e1e1e" stroke-width="2" fill="none"/></g><g transform="translate(423.3695744132817 366.64351839171275) rotate(0 29.266393506688587 32.47371294935357)"><path d="M49.16 41.77 C51.52 47.61, 53.88 53.44, 58.53 64.95 M49.16 41.77 C51.09 46.56, 53.03 51.35, 58.53 64.95" stroke="#1e1e1e" stroke-width="2" fill="none"/></g></g><mask/><g stroke-linecap="round"><g transform="translate(420.1622549706167 522.9984325923037) rotate(0 34.07737267068603 -34.07734330715789)"><path d="M0 0 C11.36 -11.36, 56.8 -56.8, 68.15 -68.15 M0 0 C11.36 -11.36, 56.8 -56.8, 68.15 -68.15" stroke="#1e1e1e" stroke-width="2" fill="none"/></g><g transform="translate(420.1622549706167 522.9984325923037) rotate(0 34.07737267068603 -34.07734330715789)"><path d="M57.59 -45.5 C60.97 -52.74, 64.34 -59.98, 68.15 -68.15 M57.59 -45.5 C61.69 -54.29, 65.79 -63.09, 68.15 -68.15" stroke="#1e1e1e" stroke-width="2" fill="none"/></g><g transform="translate(420.1622549706167 522.9984325923037) rotate(0 34.07737267068603 -34.07734330715789)"><path d="M45.5 -57.59 C52.74 -60.97, 59.98 -64.34, 68.15 -68.15 M45.5 -57.59 C54.29 -61.69, 63.09 -65.79, 68.15 -68.15" stroke="#1e1e1e" stroke-width="2" fill="none"/></g></g><mask/><g transform="translate(590.4479293823242 850) rotate(0 18.154296875 11.5)"><text x="18.154296875" y="18.400390625" font-family="Helvetica, Segoe UI Emoji" font-size="20px" fill="#1e1e1e" text-anchor="middle" style="white-space: pre;" direction="ltr" dominant-baseline="alphabetic">c | z</text></g><g stroke-linecap="round"><g transform="translate(504.3533626170888 452.4382857595174) rotate(0 43.69921354456858 198.85136827239614)"><path d="M0 0 C14.57 66.28, 72.83 331.42, 87.4 397.7 M0 0 C14.57 66.28, 72.83 331.42, 87.4 397.7" stroke="#1e1e1e" stroke-width="2" fill="none"/></g><g transform="translate(504.3533626170888 452.4382857595174) rotate(0 43.69921354456858 198.85136827239614)"><path d="M74 376.59 C78.78 384.12, 83.56 391.66, 87.4 397.7 M74 376.59 C78.93 384.36, 83.86 392.13, 87.4 397.7" stroke="#1e1e1e" stroke-width="2" fill="none"/></g><g transform="translate(504.3533626170888 452.4382857595174) rotate(0 43.69921354456858 198.85136827239614)"><path d="M90.71 372.92 C89.53 381.76, 88.35 390.6, 87.4 397.7 M90.71 372.92 C89.49 382.04, 88.27 391.16, 87.4 397.7" stroke="#1e1e1e" stroke-width="2" fill="none"/></g></g><mask/><g stroke-linecap="round"><g transform="translate(95.42512547708156 862.970123893801) rotate(0 242.55055245343658 0)"><path d="M0 0 C80.85 0, 404.25 0, 485.1 0 M0 0 C80.85 0, 404.25 0, 485.1 0" stroke="#1e1e1e" stroke-width="2" fill="none"/></g><g transform="translate(95.42512547708156 862.970123893801) rotate(0 242.55055245343658 0)"><path d="M461.61 8.55 C470.66 5.26, 479.71 1.96, 485.1 0 M461.61 8.55 C467.36 6.46, 473.1 4.37, 485.1 0" stroke="#1e1e1e" stroke-width="2" fill="none"/></g><g transform="translate(95.42512547708156 862.970123893801) rotate(0 242.55055245343658 0)"><path d="M461.61 -8.55 C470.66 -5.26, 479.71 -1.96, 485.1 0 M461.61 -8.55 C467.36 -6.46, 473.1 -4.37, 485.1 0" stroke="#1e1e1e" stroke-width="2" fill="none"/></g></g><mask/><g transform="translate(210.67127990722656 790) rotate(0 23.7109375 11.5)"><text x="23.7109375" y="18.400390625" font-family="Helvetica, Segoe UI Emoji" font-size="20px" fill="#1e1e1e" text-anchor="middle" style="white-space: pre;" direction="ltr" dominant-baseline="alphabetic">!y | !c</text></g><g stroke-linecap="round"><g transform="translate(98.63244491974649 922.3047701313725) rotate(0 55.325585024824534 -52.51919519425678)"><path d="M0 0 C18.44 -17.51, 92.21 -87.53, 110.65 -105.04 M0 0 C18.44 -17.51, 92.21 -87.53, 110.65 -105.04" stroke="#1e1e1e" stroke-width="2" fill="none"/></g><g transform="translate(98.63244491974649 922.3047701313725) rotate(0 55.325585024824534 -52.51919519425678)"><path d="M99.5 -82.66 C103.03 -89.74, 106.56 -96.82, 110.65 -105.04 M99.5 -82.66 C102.97 -89.63, 106.45 -96.6, 110.65 -105.04" stroke="#1e1e1e" stroke-width="2" fill="none"/></g><g transform="translate(98.63244491974649 922.3047701313725) rotate(0 55.325585024824534 -52.51919519425678)"><path d="M87.73 -95.07 C94.98 -98.22, 102.23 -101.38, 110.65 -105.04 M87.73 -95.07 C94.87 -98.17, 102.01 -101.28, 110.65 -105.04" stroke="#1e1e1e" stroke-width="2" fill="none"/></g></g><mask/><g stroke-linecap="round"><g transform="translate(103.44336535668776 744.3007726916019) rotate(0 52.11826558215955 24.05460218470631)"><path d="M0 0 C17.37 8.02, 86.86 40.09, 104.24 48.11 M0 0 C17.37 8.02, 86.86 40.09, 104.24 48.11" stroke="#1e1e1e" stroke-width="2" fill="none"/></g><g transform="translate(103.44336535668776 744.3007726916019) rotate(0 52.11826558215955 24.05460218470631)"><path d="M79.32 46.03 C88.83 46.82, 98.34 47.62, 104.24 48.11 M79.32 46.03 C87.78 46.73, 96.23 47.44, 104.24 48.11" stroke="#1e1e1e" stroke-width="2" fill="none"/></g><g transform="translate(103.44336535668776 744.3007726916019) rotate(0 52.11826558215955 24.05460218470631)"><path d="M86.49 30.5 C93.26 37.22, 100.03 43.94, 104.24 48.11 M86.49 30.5 C92.51 36.48, 98.54 42.45, 104.24 48.11" stroke="#1e1e1e" stroke-width="2" fill="none"/></g></g><mask/><g transform="translate(710.4812850952148 790) rotate(0 23.7109375 11.5)"><text x="23.7109375" y="18.400390625" font-family="Helvetica, Segoe UI Emoji" font-size="20px" fill="#1e1e1e" text-anchor="middle" style="white-space: pre;" direction="ltr" dominant-baseline="alphabetic">! y | z</text></g><g stroke-linecap="round"><g transform="translate(639.0591348514442 864.5737836151334) rotate(0 37.284633386294786 -24.4555024332754)"><path d="M0 0 C12.43 -8.15, 62.14 -40.76, 74.57 -48.91 M0 0 C12.43 -8.15, 62.14 -40.76, 74.57 -48.91" stroke="#1e1e1e" stroke-width="2" fill="none"/></g><g transform="translate(639.0591348514442 864.5737836151334) rotate(0 37.284633386294786 -24.4555024332754)"><path d="M59.62 -28.88 C65.4 -36.62, 71.18 -44.37, 74.57 -48.91 M59.62 -28.88 C64.99 -36.08, 70.37 -43.28, 74.57 -48.91" stroke="#1e1e1e" stroke-width="2" fill="none"/></g><g transform="translate(639.0591348514442 864.5737836151334) rotate(0 37.284633386294786 -24.4555024332754)"><path d="M50.24 -43.18 C59.64 -45.39, 69.05 -47.61, 74.57 -48.91 M50.24 -43.18 C58.98 -45.24, 67.73 -47.3, 74.57 -48.91" stroke="#1e1e1e" stroke-width="2" fill="none"/></g></g><mask/><g stroke-linecap="round"><g transform="translate(263.8073407700258 804.4372781533676) rotate(0 219.69868037796562 -0.8018298606662029)"><path d="M0 0 C73.23 -0.27, 366.16 -1.34, 439.4 -1.6 M0 0 C73.23 -0.27, 366.16 -1.34, 439.4 -1.6" stroke="#1e1e1e" stroke-width="2" fill="none"/></g><g transform="translate(263.8073407700258 804.4372781533676) rotate(0 219.69868037796562 -0.8018298606662029)"><path d="M415.94 7.03 C423.64 4.2, 431.34 1.36, 439.4 -1.6 M415.94 7.03 C420.64 5.3, 425.34 3.57, 439.4 -1.6" stroke="#1e1e1e" stroke-width="2" fill="none"/></g><g transform="translate(263.8073407700258 804.4372781533676) rotate(0 219.69868037796562 -0.8018298606662029)"><path d="M415.87 -10.07 C423.6 -7.29, 431.32 -4.51, 439.4 -1.6 M415.87 -10.07 C420.59 -8.37, 425.3 -6.68, 439.4 -1.6" stroke="#1e1e1e" stroke-width="2" fill="none"/></g></g><mask/><g transform="translate(211.09640502929688 190) rotate(0 18.7158203125 11.5)"><text x="18.7158203125" y="18.400390625" font-family="Helvetica, Segoe UI Emoji" font-size="20px" fill="#1e1e1e" text-anchor="middle" style="white-space: pre;" direction="ltr" dominant-baseline="alphabetic">a | y</text></g><g stroke-linecap="round"><g transform="translate(93.82152448280522 200.6667633172392) rotate(0 54.12285491558919 1.20273010923529)"><path d="M0 0 C18.04 0.4, 90.2 2, 108.25 2.41 M0 0 C18.04 0.4, 90.2 2, 108.25 2.41" stroke="#1e1e1e" stroke-width="2" fill="none"/></g><g transform="translate(93.82152448280522 200.6667633172392) rotate(0 54.12285491558919 1.20273010923529)"><path d="M84.57 10.43 C90.63 8.38, 96.7 6.32, 108.25 2.41 M84.57 10.43 C91.48 8.09, 98.39 5.75, 108.25 2.41" stroke="#1e1e1e" stroke-width="2" fill="none"/></g><g transform="translate(93.82152448280522 200.6667633172392) rotate(0 54.12285491558919 1.20273010923529)"><path d="M84.95 -6.66 C90.92 -4.34, 96.88 -2.02, 108.25 2.41 M84.95 -6.66 C91.75 -4.02, 98.55 -1.37, 108.25 2.41" stroke="#1e1e1e" stroke-width="2" fill="none"/></g></g><mask/><g stroke-linecap="round"><g transform="translate(92.21780603441664 445.2219051041054) rotate(0 57.731045243295114 -114.6602753076881)"><path d="M0 0 C19.24 -38.22, 96.22 -191.1, 115.46 -229.32 M0 0 C19.24 -38.22, 96.22 -191.1, 115.46 -229.32" stroke="#1e1e1e" stroke-width="2" fill="none"/></g><g transform="translate(92.21780603441664 445.2219051041054) rotate(0 57.731045243295114 -114.6602753076881)"><path d="M112.53 -204.49 C113.13 -209.51, 113.72 -214.52, 115.46 -229.32 M112.53 -204.49 C113.32 -211.12, 114.1 -217.74, 115.46 -229.32" stroke="#1e1e1e" stroke-width="2" fill="none"/></g><g transform="translate(92.21780603441664 445.2219051041054) rotate(0 57.731045243295114 -114.6602753076881)"><path d="M97.26 -212.18 C100.94 -215.64, 104.61 -219.11, 115.46 -229.32 M97.26 -212.18 C102.12 -216.75, 106.97 -221.33, 115.46 -229.32" stroke="#1e1e1e" stroke-width="2" fill="none"/></g></g><mask/><g transform="translate(373.80377197265625 610) rotate(0 34.6484375 11.5)"><text x="34.6484375" y="18.400390625" font-family="Helvetica, Segoe UI Emoji" font-size="20px" fill="#1e1e1e" text-anchor="middle" style="white-space: pre;" direction="ltr" dominant-baseline="alphabetic">!b | z | y</text></g><g stroke-linecap="round"><g transform="translate(248.39224243164062 210) rotate(0 65.63555014711517 197.97269890764682)"><path d="M0 0 C21.88 65.99, 109.39 329.95, 131.27 395.95 M0 0 C21.88 65.99, 109.39 329.95, 131.27 395.95" stroke="#1e1e1e" stroke-width="2" fill="none"/></g><g transform="translate(248.39224243164062 210) rotate(0 65.63555014711517 197.97269890764682)"><path d="M115.76 376.34 C121.65 383.78, 127.53 391.22, 131.27 395.95 M115.76 376.34 C120.65 382.52, 125.54 388.7, 131.27 395.95" stroke="#1e1e1e" stroke-width="2" fill="none"/></g><g transform="translate(248.39224243164062 210) rotate(0 65.63555014711517 197.97269890764682)"><path d="M131.99 370.96 C131.72 380.44, 131.45 389.92, 131.27 395.95 M131.99 370.96 C131.77 378.83, 131.54 386.71, 131.27 395.95" stroke="#1e1e1e" stroke-width="2" fill="none"/></g></g><mask/><g stroke-linecap="round"><g transform="translate(105.84882557515834 563.0894558091663) rotate(0 129.89485179741405 30.469152979451962)"><path d="M0 0 C43.3 10.16, 216.49 50.78, 259.79 60.94 M0 0 C43.3 10.16, 216.49 50.78, 259.79 60.94" stroke="#1e1e1e" stroke-width="2" fill="none"/></g><g transform="translate(105.84882557515834 563.0894558091663) rotate(0 129.89485179741405 30.469152979451962)"><path d="M234.97 63.9 C243.73 62.85, 252.49 61.81, 259.79 60.94 M234.97 63.9 C241.16 63.16, 247.35 62.42, 259.79 60.94" stroke="#1e1e1e" stroke-width="2" fill="none"/></g><g transform="translate(105.84882557515834 563.0894558091663) rotate(0 129.89485179741405 30.469152979451962)"><path d="M238.87 47.25 C246.25 52.08, 253.64 56.91, 259.79 60.94 M238.87 47.25 C244.09 50.66, 249.3 54.08, 259.79 60.94" stroke="#1e1e1e" stroke-width="2" fill="none"/></g></g><mask/><g transform="translate(811.148078918457 690) rotate(0 21.494140625 11.5)"><text x="21.494140625" y="18.400390625" font-family="Helvetica, Segoe UI Emoji" font-size="20px" fill="#1e1e1e" text-anchor="middle" style="white-space: pre;" direction="ltr" dominant-baseline="alphabetic">!b | z</text></g><g stroke-linecap="round"><g transform="translate(763.3412069877227 798.022697995094) rotate(0 28.865522621647642 -40.4918941019036)"><path d="M0 0 C9.62 -13.5, 48.11 -67.49, 57.73 -80.98 M0 0 C9.62 -13.5, 48.11 -67.49, 57.73 -80.98" stroke="#1e1e1e" stroke-width="2" fill="none"/></g><g transform="translate(763.3412069877227 798.022697995094) rotate(0 28.865522621647642 -40.4918941019036)"><path d="M51.06 -56.89 C53.68 -66.38, 56.31 -75.86, 57.73 -80.98 M51.06 -56.89 C53.15 -64.44, 55.24 -71.99, 57.73 -80.98" stroke="#1e1e1e" stroke-width="2" fill="none"/></g><g transform="translate(763.3412069877227 798.022697995094) rotate(0 28.865522621647642 -40.4918941019036)"><path d="M37.13 -66.82 C45.24 -72.4, 53.35 -77.97, 57.73 -80.98 M37.13 -66.82 C43.59 -71.26, 50.04 -75.7, 57.73 -80.98" stroke="#1e1e1e" stroke-width="2" fill="none"/></g></g><mask/><g stroke-linecap="round"><g transform="translate(453.8386980292057 620.8205010524615) rotate(0 175.9995255604532 40.09099385333451)"><path d="M0 0 C58.67 13.36, 293.33 66.82, 352 80.18 M0 0 C58.67 13.36, 293.33 66.82, 352 80.18" stroke="#1e1e1e" stroke-width="2" fill="none"/></g><g transform="translate(453.8386980292057 620.8205010524615) rotate(0 175.9995255604532 40.09099385333451)"><path d="M327.19 83.3 C334.99 82.32, 342.79 81.34, 352 80.18 M327.19 83.3 C333.62 82.49, 340.04 81.69, 352 80.18" stroke="#1e1e1e" stroke-width="2" fill="none"/></g><g transform="translate(453.8386980292057 620.8205010524615) rotate(0 175.9995255604532 40.09099385333451)"><path d="M330.99 66.63 C337.6 70.89, 344.2 75.15, 352 80.18 M330.99 66.63 C336.43 70.14, 341.87 73.65, 352 80.18" stroke="#1e1e1e" stroke-width="2" fill="none"/></g></g><mask/><g transform="translate(908.0922393798828 590) rotate(0 5 11.5)"><text x="5" y="18.400390625" font-family="Helvetica, Segoe UI Emoji" font-size="20px" fill="#1971c2" text-anchor="middle" style="white-space: pre;" direction="ltr" dominant-baseline="alphabetic">z</text></g><g stroke-linecap="round"><g transform="translate(508.36242382983596 442.0145856614405) rotate(0 197.24773791459165 79.38018720953085)"><path d="M0 0 C65.75 26.46, 328.75 132.3, 394.5 158.76 M0 0 C65.75 26.46, 328.75 132.3, 394.5 158.76" stroke="#1e1e1e" stroke-width="2" fill="none"/></g><g transform="translate(508.36242382983596 442.0145856614405) rotate(0 197.24773791459165 79.38018720953085)"><path d="M369.51 157.92 C376.42 158.15, 383.34 158.39, 394.5 158.76 M369.51 157.92 C379.23 158.25, 388.94 158.57, 394.5 158.76" stroke="#1e1e1e" stroke-width="2" fill="none"/></g><g transform="translate(508.36242382983596 442.0145856614405) rotate(0 197.24773791459165 79.38018720953085)"><path d="M375.89 142.06 C381.04 146.68, 386.19 151.3, 394.5 158.76 M375.89 142.06 C383.13 148.55, 390.36 155.05, 394.5 158.76" stroke="#1e1e1e" stroke-width="2" fill="none"/></g></g><mask/><g stroke-linecap="round"><g transform="translate(859.5596157265479 704.2097494747393) rotate(0 24.455473069747427 -42.897354320374234)"><path d="M0 0 C8.15 -14.3, 40.76 -71.5, 48.91 -85.79 M0 0 C8.15 -14.3, 40.76 -71.5, 48.91 -85.79" stroke="#1e1e1e" stroke-width="2" fill="none"/></g><g transform="translate(859.5596157265479 704.2097494747393) rotate(0 24.455473069747427 -42.897354320374234)"><path d="M44.7 -61.15 C46.15 -69.59, 47.59 -78.04, 48.91 -85.79 M44.7 -61.15 C45.71 -67.02, 46.71 -72.89, 48.91 -85.79" stroke="#1e1e1e" stroke-width="2" fill="none"/></g><g transform="translate(859.5596157265479 704.2097494747393) rotate(0 24.455473069747427 -42.897354320374234)"><path d="M29.85 -69.62 C36.38 -75.16, 42.91 -80.7, 48.91 -85.79 M29.85 -69.62 C34.39 -73.47, 38.93 -77.33, 48.91 -85.79" stroke="#1e1e1e" stroke-width="2" fill="none"/></g></g><mask/><g transform="translate(211.14807891845703 730) rotate(0 21.494140625 11.5)"><text x="21.494140625" y="18.400390625" font-family="Helvetica, Segoe UI Emoji" font-size="20px" fill="#1e1e1e" text-anchor="middle" style="white-space: pre;" direction="ltr" dominant-baseline="alphabetic">b | !z</text></g><g stroke-linecap="round"><g transform="translate(93.82152448280522 805.2390786505058) rotate(0 56.52831513405988 -28.865522621647585)"><path d="M0 0 C18.84 -9.62, 94.21 -48.11, 113.06 -57.73 M0 0 C18.84 -9.62, 94.21 -48.11, 113.06 -57.73" stroke="#1e1e1e" stroke-width="2" fill="none"/></g><g transform="translate(93.82152448280522 805.2390786505058) rotate(0 56.52831513405988 -28.865522621647585)"><path d="M96.02 -39.43 C101.23 -45.02, 106.43 -50.61, 113.06 -57.73 M96.02 -39.43 C99.53 -43.2, 103.03 -46.96, 113.06 -57.73" stroke="#1e1e1e" stroke-width="2" fill="none"/></g><g transform="translate(93.82152448280522 805.2390786505058) rotate(0 56.52831513405988 -28.865522621647585)"><path d="M88.25 -54.66 C95.82 -55.6, 103.4 -56.54, 113.06 -57.73 M88.25 -54.66 C93.35 -55.29, 98.46 -55.93, 113.06 -57.73" stroke="#1e1e1e" stroke-width="2" fill="none"/></g></g><mask/><g stroke-linecap="round"><g transform="translate(94.62326625288733 142.93571807394403) rotate(0 54.5237845276863 294.66887676265236)"><path d="M0 0 C18.17 98.22, 90.87 491.11, 109.05 589.34 M0 0 C18.17 98.22, 90.87 491.11, 109.05 589.34" stroke="#1e1e1e" stroke-width="2" fill="none"/></g><g transform="translate(94.62326625288733 142.93571807394403) rotate(0 54.5237845276863 294.66887676265236)"><path d="M96.37 567.79 C101.1 575.84, 105.84 583.88, 109.05 589.34 M96.37 567.79 C99.13 572.49, 101.9 577.19, 109.05 589.34" stroke="#1e1e1e" stroke-width="2" fill="none"/></g><g transform="translate(94.62326625288733 142.93571807394403) rotate(0 54.5237845276863 294.66887676265236)"><path d="M113.18 564.68 C111.64 573.89, 110.09 583.09, 109.05 589.34 M113.18 564.68 C112.28 570.06, 111.38 575.43, 109.05 589.34" stroke="#1e1e1e" stroke-width="2" fill="none"/></g></g><mask/><g stroke-linecap="round"><g transform="translate(268.3922424316406 750) rotate(0 347.99541066657036 -123.60819032770593)"><path d="M0 0 C116 -41.2, 579.99 -206.01, 695.99 -247.22 M0 0 C116 -41.2, 579.99 -206.01, 695.99 -247.22" stroke="#1e1e1e" stroke-width="2" fill="none"/></g><g transform="translate(268.3922424316406 750) rotate(0 347.99541066657036 -123.60819032770593)"><path d="M676.72 -231.3 C684.27 -237.54, 691.83 -243.78, 695.99 -247.22 M676.72 -231.3 C683.79 -237.14, 690.87 -242.98, 695.99 -247.22" stroke="#1e1e1e" stroke-width="2" fill="none"/></g><g transform="translate(268.3922424316406 750) rotate(0 347.99541066657036 -123.60819032770593)"><path d="M670.99 -247.41 C680.79 -247.33, 690.59 -247.26, 695.99 -247.22 M670.99 -247.41 C680.17 -247.34, 689.35 -247.27, 695.99 -247.22" stroke="#1e1e1e" stroke-width="2" fill="none"/></g></g><mask/><g transform="translate(968.8923873901367 490) rotate(0 8.33984375 11.5)"><text x="8.33984375" y="18.400390625" font-family="Helvetica, Segoe UI Emoji" font-size="20px" fill="#1971c2" text-anchor="middle" style="white-space: pre;" direction="ltr" dominant-baseline="alphabetic">!b</text></g><g stroke-linecap="round"><g transform="translate(922.1015814067844 599.973159583364) rotate(0 24.455473069747427 -43.69918418104044)"><path d="M0 0 C8.15 -14.57, 40.76 -72.83, 48.91 -87.4 M0 0 C8.15 -14.57, 40.76 -72.83, 48.91 -87.4" stroke="#1e1e1e" stroke-width="2" fill="none"/></g><g transform="translate(922.1015814067844 599.973159583364) rotate(0 24.455473069747427 -43.69918418104044)"><path d="M44.9 -62.72 C45.87 -68.66, 46.83 -74.6, 48.91 -87.4 M44.9 -62.72 C45.79 -68.22, 46.69 -73.72, 48.91 -87.4" stroke="#1e1e1e" stroke-width="2" fill="none"/></g><g transform="translate(922.1015814067844 599.973159583364) rotate(0 24.455473069747427 -43.69918418104044)"><path d="M29.98 -71.07 C34.54 -75, 39.09 -78.93, 48.91 -87.4 M29.98 -71.07 C34.2 -74.71, 38.42 -78.35, 48.91 -87.4" stroke="#1e1e1e" stroke-width="2" fill="none"/></g></g><mask/><g stroke-linecap="round"><g transform="translate(508.3922424316406 430) rotate(0 256.41463888532985 2.8063898305676958)"><path d="M0 0 C85.47 0.94, 427.36 4.68, 512.83 5.61 M0 0 C85.47 0.94, 427.36 4.68, 512.83 5.61" stroke="#1e1e1e" stroke-width="2" fill="none"/></g><g transform="translate(508.3922424316406 430) rotate(0 256.41463888532985 2.8063898305676958)"><path d="M489.24 13.91 C497.48 11.01, 505.72 8.11, 512.83 5.61 M489.24 13.91 C495.94 11.55, 502.64 9.2, 512.83 5.61" stroke="#1e1e1e" stroke-width="2" fill="none"/></g><g transform="translate(508.3922424316406 430) rotate(0 256.41463888532985 2.8063898305676958)"><path d="M489.43 -3.19 C497.61 -0.12, 505.78 2.96, 512.83 5.61 M489.43 -3.19 C496.08 -0.69, 502.72 1.81, 512.83 5.61" stroke="#1e1e1e" stroke-width="2" fill="none"/></g></g><mask/><g stroke-linecap="round"><g transform="translate(987.8507490755735 496.5383701891268) rotate(0 20.84740019615367 -20.04551160843124)"><path d="M0 0 C6.95 -6.68, 34.75 -33.41, 41.69 -40.09 M0 0 C6.95 -6.68, 34.75 -33.41, 41.69 -40.09" stroke="#1e1e1e" stroke-width="2" fill="none"/></g><g transform="translate(987.8507490755735 496.5383701891268) rotate(0 20.84740019615367 -20.04551160843124)"><path d="M30.69 -17.64 C34.75 -25.93, 38.81 -34.22, 41.69 -40.09 M30.69 -17.64 C34.15 -24.71, 37.61 -31.77, 41.69 -40.09" stroke="#1e1e1e" stroke-width="2" fill="none"/></g><g transform="translate(987.8507490755735 496.5383701891268) rotate(0 20.84740019615367 -20.04551160843124)"><path d="M18.83 -29.97 C27.27 -33.71, 35.71 -37.44, 41.69 -40.09 M18.83 -29.97 C26.03 -33.16, 33.22 -36.34, 41.69 -40.09" stroke="#1e1e1e" stroke-width="2" fill="none"/></g></g><mask/><g transform="translate(10 10) rotate(0 49.4921875 11.5)"><text x="49.4921875" y="18.400390625" font-family="Helvetica, Segoe UI Emoji" font-size="20px" fill="#1e1e1e" text-anchor="middle" style="white-space: pre;" direction="ltr" dominant-baseline="alphabetic">k12242829</text></g></svg>