<svg width="201pt" height="209pt" viewBox="0.00 0.00 199.47 207.47" xmlns="http://www.w3.org/2000/svg" xmlns:xlink="http://www.w3.org/1999/xlink">
<g id="graph0" class="graph" transform="scale(1.00694 1.00694) rotate(0) translate(4 203.47)">
<title>G</title>
<!-- 1 -->
<g id="node1" class="node">
<title>1</title>
<ellipse fill="#333333" stroke="#666666" stroke-width="1.5" cx="114.09" cy="-18" rx="18" ry="18"/>
<text text-anchor="middle" x="114.09" y="-12" font-family="Times,serif" font-size="20.00" fill="#eeeeee">1</text>
</g>
<!-- 2 -->
<g id="node2" class="node">
<title>2</title>
<ellipse fill="#333333" stroke="#666666" stroke-width="1.5" cx="173.47" cy="-99.74" rx="18" ry="18"/>
<text text-anchor="middle" x="173.47" y="-93.74" font-family="Times,serif" font-size="20.00" fill="#eeeeee">2</text>
</g>
<!-- 1&#45;&gt;2 -->
<g id="edge1" class="edge">
<title>1-&gt;2</title>
<path fill="none" stroke="#666666" d="M124.7,-32.61C135.45,-47.4 151.97,-70.14 162.75,-84.98"/>
</g>
<!-- 3 -->
<g id="node3" class="node">
<title>3</title>
<ellipse fill="#333333" stroke="#666666" stroke-width="1.5" cx="18" cy="-150.25" rx="18" ry="18"/>
<text text-anchor="middle" x="18" y="-144.25" font-family="Times,serif" font-size="20.00" fill="#eeeeee">3</text>
</g>
<!-- 1&#45;&gt;3 -->
<g id="edge2" class="edge">
<title>1-&gt;3</title>
<path fill="none" stroke="#666666" d="M103.25,-32.91C84.7,-58.45 47.07,-110.24 28.65,-135.6"/>
</g>
<!-- 4 -->
<g id="node4" class="node">
<title>4</title>
<ellipse fill="#333333" stroke="#666666" stroke-width="1.5" cx="114.09" cy="-181.47" rx="18" ry="18"/>
<text text-anchor="middle" x="114.09" y="-175.47" font-family="Times,serif" font-size="20.00" fill="#eeeeee">4</text>
</g>
<!-- 1&#45;&gt;4 -->
<g id="edge3" class="edge">
<title>1-&gt;4</title>
<path fill="none" stroke="#666666" d="M114.09,-36.43C114.09,-68 114.09,-132.01 114.09,-163.36"/>
</g>
<!-- 5 -->
<g id="node5" class="node">
<title>5</title>
<ellipse fill="#333333" stroke="#666666" stroke-width="1.5" cx="18" cy="-49.22" rx="18" ry="18"/>
<text text-anchor="middle" x="18" y="-43.22" font-family="Times,serif" font-size="20.00" fill="#eeeeee">5</text>
</g>
<!-- 1&#45;&gt;5 -->
<g id="edge4" class="edge">
<title>1-&gt;5</title>
<path fill="none" stroke="#666666" d="M96.91,-23.58C79.53,-29.23 52.8,-37.91 35.35,-43.58"/>
</g>
<!-- 2&#45;&gt;3 -->
<g id="edge5" class="edge">
<title>2-&gt;3</title>
<path fill="none" stroke="#666666" d="M155.94,-105.43C125.92,-115.19 65.04,-134.97 35.23,-144.65"/>
</g>
<!-- 2&#45;&gt;4 -->
<g id="edge6" class="edge">
<title>2-&gt;4</title>
<path fill="none" stroke="#666666" d="M162.86,-114.35C152.11,-129.14 135.59,-151.87 124.81,-166.71"/>
</g>
<!-- 2&#45;&gt;5 -->
<g id="edge7" class="edge">
<title>2-&gt;5</title>
<path fill="none" stroke="#666666" d="M155.94,-94.04C125.92,-84.29 65.04,-64.51 35.23,-54.82"/>
</g>
<!-- 3&#45;&gt;4 -->
<g id="edge8" class="edge">
<title>3-&gt;4</title>
<path fill="none" stroke="#666666" d="M35.18,-155.84C52.56,-161.48 79.29,-170.17 96.73,-175.84"/>
</g>
<!-- 3&#45;&gt;5 -->
<g id="edge9" class="edge">
<title>3-&gt;5</title>
<path fill="none" stroke="#666666" d="M18,-132.19C18,-113.91 18,-85.81 18,-67.47"/>
</g>
<!-- 4&#45;&gt;5 -->
<g id="edge10" class="edge">
<title>4-&gt;5</title>
<path fill="none" stroke="#666666" d="M103.25,-166.56C84.7,-141.03 47.07,-89.24 28.65,-63.88"/>
</g>
</g>
</svg>